{
  "accessors": [
    {
      "bufferView": 2,
      "componentType": 5126,
      "count": 15854,
      "max": [
        9.897125244140625,
        9.883576393127441,
        9.920793533325195
      ],
      "min": [
        -9.875,
        -9.926619529724121,
        -9.872835159301758
      ],
      "type": "VEC3"
    },
    {
      "bufferView": 2,
      "byteOffset": 190248,
      "componentType": 5126,
      "count": 15854,
      "max": [
        1.0,
        0.99955153465271,
        0.9999113082885742
      ],
      "min": [
        -1.0,
        -1.0,
        -0.9997807145118713
      ],
      "type": "VEC3"
    },
    {
      "bufferView": 3,
      "componentType": 5126,
      "count": 15854,
      "max": [
        1.0,
        0.5405547022819519,
        1.0,
        1.0
      ],
      "min": [
        -1.0,
        -0.7802154421806335,
        -1.0,
        -1.0
      ],
      "type": "VEC4"
    },
    {
      "bufferView": 1,
      "componentType": 5126,
      "count": 15854,
      "max": [
        1.0,
        1.0
      ],
      "min": [
        0.0,
        0.0
      ],
      "type": "VEC2"
    },
    {
      "bufferView": 1,
      "byteOffset": 126832,
      "componentType": 5126,
      "count": 15854,
      "max": [
        1.0,
        1.0
      ],
      "min": [
        0.0,
        0.0
      ],
      "type": "VEC2"
    },
    {
      "bufferView": 0,
      "componentType": 5125,
      "count": 93150,
      "type": "SCALAR"
    },
    {
      "bufferView": 2,
      "byteOffset": 380496,
      "componentType": 5126,
      "count": 15854,
      "max": [
        10.214704513549805,
        10.202066421508789,
        10.240466117858887
      ],
      "min": [
        -10.194530487060547,
        -10.246466636657715,
        -10.19096565246582
      ],
      "type": "VEC3"
    },
    {
      "bufferView": 2,
      "byteOffset": 570744,
      "componentType": 5126,
      "count": 15854,
      "max": [
        1.0,
        0.9995517134666443,
        0.9999113082885742
      ],
      "min": [
        -1.0,
        -1.0,
        -0.9997807741165161
      ],
      "type": "VEC3"
    },
    {
      "bufferView": 1,
      "byteOffset": 253664,
      "componentType": 5126,
      "count": 15854,
      "max": [
        1.0,
        1.0
      ],
      "min": [
        0.0,
        0.0
      ],
      "type": "VEC2"
    },
    {
      "bufferView": 1,
      "byteOffset": 380496,
      "componentType": 5126,
      "count": 15854,
      "max": [
        1.0,
        1.0
      ],
      "min": [
        0.0,
        0.0
      ],
      "type": "VEC2"
    },
    {
      "bufferView": 0,
      "byteOffset": 372600,
      "componentType": 5125,
      "count": 93150,
      "type": "SCALAR"
    }
  ],
  "asset": {
    "extras": {
      "author": "TheDrone (https://sketchfab.com/thedrone)",
      "license": "CC-BY-4.0 (http://creativecommons.org/licenses/by/4.0/)",
      "source": "https://sketchfab.com/3d-models/test-planet-272cfff0dc244bfd9c4ca8658a3013fb",
      "title": "Test Planet"
    },
    "generator": "Sketchfab-12.68.0",
    "version": "2.0"
  },
  "bufferViews": [
    {
      "buffer": 0,
      "byteLength": 745200,
      "name": "floatBufferViews",
      "target": 34963
    },
    {
      "buffer": 0,
      "byteLength": 507328,
      "byteOffset": 745200,
      "byteStride": 8,
      "name": "floatBufferViews",
      "target": 34962
    },
    {
      "buffer": 0,
      "byteLength": 760992,
      "byteOffset": 1252528,
      "byteStride": 12,
      "name": "floatBufferViews",
      "target": 34962
    },
    {
      "buffer": 0,
      "byteLength": 253664,
      "byteOffset": 2013520,
      "byteStride": 16,
      "name": "floatBufferViews",
      "target": 34962
    }
  ],
  "buffers": [
    {
      "byteLength": 2267184,
      "uri": "scene.bin"
    }
  ],
  "images": [
    {
      "uri": "textures/PlanetMat_baseColor.png"
    },
    {
      "uri": "textures/PlanetMat_metallicRoughness.png"
    },
    {
      "uri": "textures/PlanetMat_normal.png"
    },
    {
      "uri": "textures/clouds_baseColor.png"
    }
  ],
  "materials": [
    {
      "doubleSided": true,
      "name": "PlanetMat",
      "normalTexture": {
        "index": 2
      },
      "pbrMetallicRoughness": {
        "baseColorTexture": {
          "index": 0
        },
        "metallicFactor": 0.0,
        "metallicRoughnessTexture": {
          "index": 1
        }
      }
    },
    {
      "alphaMode": "BLEND",
      "doubleSided": true,
      "name": "clouds",
      "pbrMetallicRoughness": {
        "baseColorTexture": {
          "index": 3
        },
        "metallicFactor": 0.0,
        "roughnessFactor": 0.8980564024390244
      }
    }
  ],
  "meshes": [
    {
      "name": "test_preset_planet_PlanetMat_0",
      "primitives": [
        {
          "attributes": {
            "NORMAL": 1,
            "POSITION": 0,
            "TANGENT": 2,
            "TEXCOORD_0": 3,
            "TEXCOORD_1": 4
          },
          "indices": 5,
          "material": 0,
          "mode": 4
        }
      ]
    },
    {
      "name": "clouds_clouds_0",
      "primitives": [
        {
          "attributes": {
            "NORMAL": 7,
            "POSITION": 6,
            "TEXCOORD_0": 8,
            "TEXCOORD_1": 9
          },
          "indices": 10,
          "material": 1,
          "mode": 4
        }
      ]
    }
  ],
  "nodes": [
    {
      "children": [
        1
      ],
      "matrix": [
        0.0003637509944383055,
        0.0,
        0.0,
        0.0,
        0.0,
        8.07689458511408e-20,
        -0.0003637509944383055,
        0.0,
        0.0,
        0.0003637509944383055,
        8.07689458511408e-20,
        0.0,
        0.0,
        0.0,
        0.0,
        1.0
      ],
      "name": "Sketchfab_model"
    },
    {
      "children": [
        2
      ],
      "matrix": [
        1.0,
        0.0,
        0.0,
        0.0,
        0.0,
        0.0,
        1.0,
        0.0,
        0.0,
        -1.0,
        0.0,
        0.0,
        0.0,
        0.0,
        0.0,
        1.0
      ],
      "name": "2a5cac714c7740f1b1cb8e87acaf489a.fbx"
    },
    {
      "children": [
        3,
        5
      ],
      "name": "RootNode"
    },
    {
      "children": [
        4
      ],
      "matrix": [
        100.0,
        0.0,
        0.0,
        0.0,
        0.0,
        99.99999999999866,
        1.6292067073209114e-05,
        0.0,
        0.0,
        -1.6292067073209114e-05,
        99.99999999999866,
        0.0,
        0.0,
        0.0,
        0.0,
        1.0
      ],
      "name": "test_preset_planet"
    },
    {
      "mesh": 0,
      "name": "test_preset_planet_PlanetMat_0"
    },
    {
      "children": [
        6
      ],
      "matrix": [
        100.0,
        0.0,
        0.0,
        0.0,
        0.0,
        99.99999999999866,
        1.6292067073209114e-05,
        0.0,
        0.0,
        -1.6292067073209114e-05,
        99.99999999999866,
        0.0,
        0.0,
        0.0,
        0.0,
        1.0
      ],
      "name": "clouds"
    },
    {
      "mesh": 1,
      "name": "clouds_clouds_0"
    }
  ],
  "samplers": [
    {
      "magFilter": 9729,
      "minFilter": 9987,
      "wrapS": 10497,
      "wrapT": 10497
    }
  ],
  "scene": 0,
  "scenes": [
    {
      "name": "Sketchfab_Scene",
      "nodes": [
        0
      ]
    }
  ],
  "textures": [
    {
      "sampler": 0,
      "source": 0
    },
    {
      "sampler": 0,
      "source": 1
    },
    {
      "sampler": 0,
      "source": 2
    },
    {
      "sampler": 0,
      "source": 3
    }
  ]
}
